<?xml version="1.0" encoding="UTF-8"?>
<ffprobe>
    <streams>
        <stream index="0" codec_name="mpeg2video" codec_long_name="MPEG-2 video" profile="4:2:2" codec_type="video" codec_time_base="1001/60000" codec_tag_string="mx5n" codec_tag="0x6e35786d" width="720" height="512" has_b_frames="0" sample_aspect_ratio="128:135" display_aspect_ratio="4:3" pix_fmt="yuv422p" level="5" color_range="tv" chroma_location="left" timecode="00:00:00:00" refs="1" r_frame_rate="30000/1001" avg_frame_rate="30000/1001" time_base="1/30000" start_pts="0" start_time="0.000000" duration_ts="115321206" duration="3844.040200" bit_rate="50004785" max_bit_rate="50000000" nb_frames="115206">
            <disposition default="1" dub="0" original="0" comment="0" lyrics="0" karaoke="0" forced="0" hearing_impaired="0" visual_impaired="0" clean_effects="0" attached_pic="0"/>
            <tag key="language" value="eng"/>
            <tag key="handler_name" value="DataHandler"/>
            <tag key="encoder" value="Lavc57.1.100 mpeg2video"/>
        </stream>
        <stream index="1" codec_name="pcm_s24le" codec_long_name="PCM signed 24-bit little-endian" codec_type="audio" codec_time_base="1/48000" codec_tag_string="in24" codec_tag="0x34326e69" sample_fmt="s32" sample_rate="48000" channels="1" bits_per_sample="24" r_frame_rate="0/0" avg_frame_rate="0/0" time_base="1/48000" start_pts="0" start_time="0.000000" duration_ts="184513930" duration="3844.040208" bit_rate="1152000" bits_per_raw_sample="24" nb_frames="184513930">
            <disposition default="1" dub="0" original="0" comment="0" lyrics="0" karaoke="0" forced="0" hearing_impaired="0" visual_impaired="0" clean_effects="0" attached_pic="0"/>
            <tag key="language" value="eng"/>
            <tag key="handler_name" value="DataHandler"/>
        </stream>
        <stream index="2" codec_name="pcm_s24le" codec_long_name="PCM signed 24-bit little-endian" codec_type="audio" codec_time_base="1/48000" codec_tag_string="in24" codec_tag="0x34326e69" sample_fmt="s32" sample_rate="48000" channels="1" bits_per_sample="24" r_frame_rate="0/0" avg_frame_rate="0/0" time_base="1/48000" start_pts="0" start_time="0.000000" duration_ts="184513930" duration="3844.040208" bit_rate="1152000" bits_per_raw_sample="24" nb_frames="184513930">
            <disposition default="1" dub="0" original="0" comment="0" lyrics="0" karaoke="0" forced="0" hearing_impaired="0" visual_impaired="0" clean_effects="0" attached_pic="0"/>
            <tag key="language" value="eng"/>
            <tag key="handler_name" value="DataHandler"/>
        </stream>
        <stream index="3" codec_name="pcm_s24le" codec_long_name="PCM signed 24-bit little-endian" codec_type="audio" codec_time_base="1/48000" codec_tag_string="in24" codec_tag="0x34326e69" sample_fmt="s32" sample_rate="48000" channels="1" bits_per_sample="24" r_frame_rate="0/0" avg_frame_rate="0/0" time_base="1/48000" start_pts="0" start_time="0.000000" duration_ts="184513930" duration="3844.040208" bit_rate="1152000" bits_per_raw_sample="24" nb_frames="184513930">
            <disposition default="1" dub="0" original="0" comment="0" lyrics="0" karaoke="0" forced="0" hearing_impaired="0" visual_impaired="0" clean_effects="0" attached_pic="0"/>
            <tag key="language" value="eng"/>
            <tag key="handler_name" value="DataHandler"/>
        </stream>
        <stream index="4" codec_name="pcm_s24le" codec_long_name="PCM signed 24-bit little-endian" codec_type="audio" codec_time_base="1/48000" codec_tag_string="in24" codec_tag="0x34326e69" sample_fmt="s32" sample_rate="48000" channels="1" bits_per_sample="24" r_frame_rate="0/0" avg_frame_rate="0/0" time_base="1/48000" start_pts="0" start_time="0.000000" duration_ts="184513930" duration="3844.040208" bit_rate="1152000" bits_per_raw_sample="24" nb_frames="184513930">
            <disposition default="1" dub="0" original="0" comment="0" lyrics="0" karaoke="0" forced="0" hearing_impaired="0" visual_impaired="0" clean_effects="0" attached_pic="0"/>
            <tag key="language" value="eng"/>
            <tag key="handler_name" value="DataHandler"/>
        </stream>
    </streams>

    <format filename="/srv/scratch/transcoder_workspace_xcode-01_prod/MDPI_40000000788093.downloading/data/MDPI_40000000788093_01_mezz.mov" nb_streams="5" nb_programs="0" format_name="mov,mp4,m4a,3gp,3g2,mj2" format_long_name="QuickTime / MOV" start_time="0.000000" duration="3844.041000" size="26251398300" bit_rate="54632920" probe_score="100">
        <tag key="major_brand" value="qt  "/>
        <tag key="minor_version" value="512"/>
        <tag key="compatible_brands" value="qt  "/>
        <tag key="title" value="Library Of Congress Tape 1, The American Variety Stage: Vaudeville And Popular Entertainment 1870-1920"/>
        <tag key="date" value="2016-01-04"/>
        <tag key="encoder" value="Lavf57.0.100"/>
        <tag key="comment" value="File Created by Memnon Archiving Services"/>
    </format>
</ffprobe>
